<mxfile host="app.diagrams.net">
  <diagram id="RLLoop" name="Reinforcement Learning Loop">
    <mxGraphModel dx="1020" dy="660" grid="1" gridSize="10" guides="1" tooltips="1" connect="1" arrows="1" fold="1" page="1" pageScale="1" pageWidth="827" pageHeight="1169" math="0" shadow="0">
      <root>
        <mxCell id="0"/>
        <mxCell id="1" parent="0"/>

        <!-- Environment -->
        <mxCell id="env" value="Environment" style="shape=rectangle;whiteSpace=wrap;html=1;fillColor=#ffffff;strokeColor=#000000;" vertex="1" parent="1">
          <mxGeometry x="300" y="40" width="160" height="80" as="geometry"/>
        </mxCell>

        <!-- Interpreter -->
        <mxCell id="interpreter" value="Interpreter" style="shape=ellipse;whiteSpace=wrap;html=1;fillColor=#ffffff;strokeColor=#000000;" vertex="1" parent="1">
          <mxGeometry x="80" y="160" width="120" height="80" as="geometry"/>
        </mxCell>

        <!-- Agent -->
        <mxCell id="agent" value="Agent" style="shape=ellipse;whiteSpace=wrap;html=1;fillColor=#ffffff;strokeColor=#000000;" vertex="1" parent="1">
          <mxGeometry x="300" y="280" width="120" height="80" as="geometry"/>
        </mxCell>

        <!-- Action -->
        <mxCell id="action" value="Action" style="shape=ellipse;whiteSpace=wrap;html=1;fillColor=#ffffff;strokeColor=#000000;" vertex="1" parent="1">
          <mxGeometry x="540" y="160" width="120" height="80" as="geometry"/>
        </mxCell>

        <!-- Labels for observations -->
        <mxCell id="obs" value="Observation&#xa;- Cart position&#xa;- Cart velocity&#xa;- Pole angle&#xa;- Pole angular velocity" style="text;whiteSpace=wrap;html=1;" vertex="1" parent="1">
          <mxGeometry x="60" y="260" width="160" height="100" as="geometry"/>
        </mxCell>

        <!-- Reward -->
        <mxCell id="reward" value="Reward&#xa;+1 for each time step" style="text;whiteSpace=wrap;html=1;" vertex="1" parent="1">
          <mxGeometry x="180" y="360" width="160" height="60" as="geometry"/>
        </mxCell>

        <!-- Action details -->
        <mxCell id="action_details" value="0: Push cart left&#xa;1: Push cart right" style="text;whiteSpace=wrap;html=1;" vertex="1" parent="1">
          <mxGeometry x="520" y="260" width="160" height="60" as="geometry"/>
        </mxCell>

        <!-- Arrows -->
        <mxCell id="arrow1" style="edgeStyle=orthogonalEdgeStyle;rounded=0;orthogonalLoop=1;jettySize=auto;html=1;" edge="1" parent="1" source="env" target="interpreter">
          <mxGeometry relative="1" as="geometry"/>
        </mxCell>
        <mxCell id="arrow2" style="edgeStyle=orthogonalEdgeStyle;rounded=0;orthogonalLoop=1;jettySize=auto;html=1;" edge="1" parent="1" source="interpreter" target="agent">
          <mxGeometry relative="1" as="geometry"/>
        </mxCell>
        <mxCell id="arrow3" style="edgeStyle=orthogonalEdgeStyle;rounded=0;orthogonalLoop=1;jettySize=auto;html=1;" edge="1" parent="1" source="agent" target="action">
          <mxGeometry relative="1" as="geometry"/>
        </mxCell>
        <mxCell id="arrow4" style="edgeStyle=orthogonalEdgeStyle;rounded=0;orthogonalLoop=1;jettySize=auto;html=1;" edge="1" parent="1" source="action" target="env">
          <mxGeometry relative="1" as="geometry"/>
        </mxCell>

      </root>
    </mxGraphModel>
  </diagram>
</mxfile>
